<mxfile host="app.diagrams.net" modified="2024-03-15T11:10:27.865Z" agent="Mozilla/5.0 (Macintosh; Intel Mac OS X 10_15_7) AppleWebKit/537.36 (KHTML, like Gecko) Chrome/116.0.0.0 Safari/537.36" etag="sJdMOoXG354tMKLwzVLP" version="24.0.7" type="device">
  <diagram name="ページ1" id="0mRtbUcXiRgQefocvBfH">
    <mxGraphModel dx="976" dy="569" grid="1" gridSize="10" guides="1" tooltips="1" connect="1" arrows="1" fold="1" page="1" pageScale="1" pageWidth="10" pageHeight="10" math="0" shadow="0">
      <root>
        <mxCell id="0" />
        <mxCell id="1" parent="0" />
        <mxCell id="1VkHnEbaeBBj4qfACHqL-1" value="&lt;div style=&quot;font-size: 17px;&quot;&gt;Plant Encyclopedias, this is the title of this Enclst&lt;/div&gt;&lt;div style=&quot;font-size: 17px;&quot;&gt;&lt;br style=&quot;font-size: 17px;&quot;&gt;&lt;/div&gt;&lt;div style=&quot;font-size: 17px;&quot;&gt;https://www.bhg.com/gardening/plant-dictionary/ | Plant Encyclopedia&lt;/div&gt;&lt;div style=&quot;font-size: 17px;&quot;&gt;https://www.plantsnap.com/plant-encyclopedia/ | Plant Encyclopedia: Complete Online Plant and Flower ...&lt;/div&gt;&lt;div style=&quot;font-size: 17px;&quot;&gt;https://www.picturethisai.com/wiki | Online Plant Encyclopedia and Common Popular Plants&lt;/div&gt;" style="text;strokeColor=none;align=left;fillColor=none;html=1;verticalAlign=middle;whiteSpace=wrap;rounded=0;fontSize=17;" vertex="1" parent="1">
          <mxGeometry x="60" y="-70" width="860" height="180" as="geometry" />
        </mxCell>
        <mxCell id="1VkHnEbaeBBj4qfACHqL-6" value="" style="strokeWidth=2;html=1;shape=mxgraph.flowchart.annotation_2;align=left;labelPosition=right;pointerEvents=1;" vertex="1" parent="1">
          <mxGeometry x="40" y="10" width="15" height="60" as="geometry" />
        </mxCell>
        <mxCell id="1VkHnEbaeBBj4qfACHqL-9" value="&lt;font style=&quot;font-size: 19px;&quot;&gt;Items&lt;/font&gt;" style="text;html=1;align=center;verticalAlign=middle;resizable=0;points=[];autosize=1;strokeColor=none;fillColor=none;" vertex="1" parent="1">
          <mxGeometry x="-30" y="20" width="70" height="40" as="geometry" />
        </mxCell>
        <mxCell id="1VkHnEbaeBBj4qfACHqL-10" value="" style="strokeWidth=2;html=1;shape=mxgraph.flowchart.annotation_2;align=left;labelPosition=right;pointerEvents=1;" vertex="1" parent="1">
          <mxGeometry x="40" y="-30" width="15" height="20" as="geometry" />
        </mxCell>
        <mxCell id="1VkHnEbaeBBj4qfACHqL-11" value="&lt;font style=&quot;font-size: 19px;&quot;&gt;Title&lt;/font&gt;" style="text;html=1;align=center;verticalAlign=middle;resizable=0;points=[];autosize=1;strokeColor=none;fillColor=none;" vertex="1" parent="1">
          <mxGeometry x="-25" y="-40" width="60" height="40" as="geometry" />
        </mxCell>
        <mxCell id="1VkHnEbaeBBj4qfACHqL-12" value="&lt;pre style=&quot;unicode-bidi: isolate; line-height: 36px; background-color: rgb(248, 249, 250); border: none; padding: 2px 0.14em 2px 0px; position: relative; margin-top: -2px; margin-bottom: -2px; resize: none; font-family: inherit; overflow: hidden; width: 270px; text-wrap: wrap; overflow-wrap: break-word; color: rgb(32, 33, 36); font-size: 14px;&quot; dir=&quot;ltr&quot; data-ved=&quot;2ahUKEwjf5fT6gPaEAxWepVYBHVNjAq4Q3ewLegQIBRAU&quot; id=&quot;tw-target-text&quot; data-placeholder=&quot;翻訳&quot; class=&quot;tw-data-text tw-text-large tw-ta&quot;&gt;&lt;span style=&quot;font-size: 14px;&quot; lang=&quot;en&quot; class=&quot;Y2IQFc&quot;&gt;&lt;font style=&quot;font-size: 14px;&quot;&gt;An empty line separating title and itemlist&lt;/font&gt;&lt;/span&gt;&lt;/pre&gt;" style="shape=callout;whiteSpace=wrap;html=1;perimeter=calloutPerimeter;align=left;fontSize=14;base=23;" vertex="1" parent="1">
          <mxGeometry x="290" y="-90" width="305" height="85" as="geometry" />
        </mxCell>
      </root>
    </mxGraphModel>
  </diagram>
</mxfile>
